<svg width="237" height="136" fill="none" xmlns="http://www.w3.org/2000/svg"><path d="M55.67 0c20.393 0 34.707 5.827 42.94 17.48 8.36 11.527 12.54 28.247 12.54 50.16 0 21.913-4.18 38.697-12.54 50.35-8.233 11.527-22.547 17.29-42.94 17.29-20.52 0-34.96-5.763-43.32-17.29C4.117 106.337 0 89.553 0 67.64s4.117-38.633 12.35-50.16C20.71 5.827 35.15 0 55.67 0zm0 25.65c-6.587 0-11.273 2.533-14.06 7.6-2.787 5.067-4.18 13.363-4.18 24.89v18.81c0 11.653 1.393 20.013 4.18 25.08 2.787 5.067 7.473 7.6 14.06 7.6 6.587 0 11.21-2.533 13.87-7.6 2.66-5.067 3.99-13.427 3.99-25.08V58.14c0-11.653-1.33-19.95-3.99-24.89-2.66-5.067-7.283-7.6-13.87-7.6zM184.679 0c10.26 0 19.126 1.647 26.6 4.94 7.6 3.167 13.426 7.727 17.48 13.68 4.18 5.953 6.27 12.857 6.27 20.71 0 7.347-1.837 13.997-5.51 19.95-3.674 5.953-8.297 11.21-13.87 15.77-5.574 4.56-13.237 10.133-22.99 16.72-5.447 3.547-9.88 6.587-13.3 9.12h57.19V133h-108.3v-9.12c0-6.713 1.52-12.667 4.56-17.86 3.166-5.32 7.726-10.64 13.68-15.96 6.08-5.32 14.82-12.54 26.22-21.66 9.12-7.22 15.516-12.73 19.19-16.53 3.673-3.8 5.51-7.537 5.51-11.21 0-3.927-1.394-7.22-4.18-9.88-2.66-2.66-6.714-3.99-12.16-3.99-5.7 0-10.197 1.647-13.49 4.94-3.294 3.293-4.94 7.6-4.94 12.92v3.8h-33.82c-.127-1.013-.19-2.407-.19-4.18 0-13.68 4.75-24.447 14.25-32.3C152.505 3.99 166.439 0 184.679 0z" fill="rgba(255, 255, 255, 0.2)"/></svg>
