<svg width="238" height="136" fill="none" xmlns="http://www.w3.org/2000/svg"><path d="M55.67 0c20.393 0 34.707 5.827 42.94 17.48 8.36 11.527 12.54 28.247 12.54 50.16 0 21.913-4.18 38.697-12.54 50.35-8.233 11.527-22.547 17.29-42.94 17.29-20.52 0-34.96-5.763-43.32-17.29C4.117 106.337 0 89.553 0 67.64s4.117-38.633 12.35-50.16C20.71 5.827 35.15 0 55.67 0zm0 25.65c-6.587 0-11.273 2.533-14.06 7.6-2.787 5.067-4.18 13.363-4.18 24.89v18.81c0 11.653 1.393 20.013 4.18 25.08 2.787 5.067 7.473 7.6 14.06 7.6 6.587 0 11.21-2.533 13.87-7.6 2.66-5.067 3.99-13.427 3.99-25.08V58.14c0-11.653-1.33-19.95-3.99-24.89-2.66-5.067-7.283-7.6-13.87-7.6zM237.499 103.74V133h-98.61v-29.26h30.97V44.65h-30.97V22.61c8.486-.507 17.986-2.723 28.5-6.65 10.513-4.053 19.696-8.677 27.55-13.87h12.73v101.65h29.83z" fill="rgba(255, 255, 255, 0.2)"/></svg>
