<svg width="239" height="136" fill="none" xmlns="http://www.w3.org/2000/svg"><path d="M56.46 0C76.853 0 91.167 5.827 99.4 17.48c8.36 11.527 12.54 28.247 12.54 50.16 0 21.913-4.18 38.697-12.54 50.35-8.233 11.527-22.547 17.29-42.94 17.29-20.52 0-34.96-5.763-43.32-17.29C4.907 106.337.79 89.553.79 67.64s4.117-38.633 12.35-50.16C21.5 5.827 35.94 0 56.46 0zm0 25.65c-6.587 0-11.273 2.533-14.06 7.6-2.787 5.067-4.18 13.363-4.18 24.89v18.81c0 11.653 1.393 20.013 4.18 25.08 2.787 5.067 7.473 7.6 14.06 7.6 6.587 0 11.21-2.533 13.87-7.6 2.66-5.067 3.99-13.427 3.99-25.08V58.14c0-11.653-1.33-19.95-3.99-24.89-2.66-5.067-7.283-7.6-13.87-7.6zM184.139 0c10.386 0 19.38 1.583 26.98 4.75 7.726 3.167 13.553 7.473 17.48 12.92 4.053 5.32 6.08 11.273 6.08 17.86s-1.774 12.54-5.32 17.86c-3.547 5.193-8.107 8.867-13.68 11.02v.76c7.22 2.28 12.793 6.27 16.72 11.97 4.053 5.573 6.08 12.35 6.08 20.33-.507 11.147-5.384 20.267-14.63 27.36-9.12 6.967-22.61 10.45-40.47 10.45-12.287 0-22.61-1.647-30.97-4.94s-14.567-7.79-18.62-13.49c-4.054-5.7-6.08-12.097-6.08-19.19v-3.99h33.44c0 10.387 6.586 15.58 19.76 15.58 13.173 0 19.76-5.827 19.76-17.48 0-4.433-1.267-7.79-3.8-10.07-2.407-2.407-5.574-3.61-9.5-3.61h-13.87V54.72h10.83c3.926 0 7.093-1.14 9.5-3.42 2.533-2.407 3.8-5.827 3.8-10.26 0-4.18-1.52-7.727-4.56-10.64-2.914-2.913-6.967-4.37-12.16-4.37-5.447 0-9.69 1.393-12.73 4.18-3.04 2.787-4.56 6.207-4.56 10.26h-31.73v-4.75c0-6.587 2.026-12.603 6.08-18.05 4.18-5.447 10.196-9.753 18.05-12.92 7.98-3.167 17.353-4.75 28.12-4.75z" fill="rgba(255, 255, 255, 0.2)"/></svg>
